<?xml version="1.0" encoding="UTF-8"?>
<svg id="Layer_2" data-name="Layer 2" xmlns="http://www.w3.org/2000/svg" viewBox="0 0 1449 287.89">
  <g id="Layer_1-2" data-name="Layer 1">
    <g fill="#ffffff">
      <path d="M145.01,148.54v59.77c0,56.59-19.81,79.58-70.03,79.58S0,264.55,0,207.61v-122.73C0,27.94,21.22,0,72.15,0s70.38,26.17,70.38,74.27l-1.41,39.61h-46.69v-32.54c0-27.23-2.12-38.9-22.28-38.9-18.74,0-21.93,11.67-21.93,40.67v124.49c0,29,5.66,38.9,25.11,38.9s25.11-8.84,25.11-38.2v-20.51h-24.76v-39.26h69.32Z"/>
      <path d="M244.39,5.31c57.65,0,88.77,21.93,88.77,93.37,0,43.86-13.44,71.8-37.49,87l41.73,96.91h-52.34l-33.25-83.82c-3.18.35-6.37.35-9.9.35h-7.07v83.47h-49.16V5.31h58.71ZM282.94,99.74c0-41.73-8.84-51.99-40.32-51.99h-7.78v109.99h5.3c32.89,0,42.79-14.85,42.79-58Z"/>
      <path d="M392.93,5.31h92.31l33.6,277.28h-50.22l-6.01-60.83h-46.69l-6.01,60.83h-50.22L392.93,5.31ZM458.72,180.37l-12.02-132.98h-14.85l-12.03,132.98h38.9Z"/>
      <path d="M669.86,5.31v44.92h-47.04v232.36h-50.22V50.22h-46.69V5.31h143.95Z"/>
      <path d="M747.31,5.31v277.28h-50.22V5.31h50.22Z"/>
      <path d="M918.84,5.31v44.92h-47.04v232.36h-50.22V50.22h-46.69V5.31h143.95Z"/>
      <path d="M944.3,207.61V5.31h50.22v198.41c0,31.83,4.24,41.73,22.28,41.73s22.28-9.9,22.28-41.73V5.31h50.22v202.3c0,55.53-24.05,80.28-72.5,80.28s-72.5-24.76-72.5-80.28Z"/>
      <path d="M1191.52,5.31c64.72,0,93.37,27.59,93.37,136.52s-29.36,140.76-93.37,140.76h-58V5.31h58ZM1233.97,141.82c0-79.58-9.9-93.72-40.67-93.72h-10.26v191.69h10.26c30.77,0,40.67-18.39,40.67-97.97Z"/>
      <path d="M1449,5.31v44.92h-74.63v80.99h60.48v41.73h-60.48v64.72h74.63v44.92h-124.14V5.31h124.14Z"/>
    </g>
  </g>
</svg>
